<?xml version="1.0" encoding="UTF-8"?>
<svg id="katman_1" data-name="katman 1" xmlns="http://www.w3.org/2000/svg" version="1.1" viewBox="0 0 841.89 595.28">
  <defs>
    <style>
      .cls-1 {
        fill: #f48024;
      }

      .cls-1, .cls-2, .cls-3 {
        stroke-width: 0px;
      }

      .cls-2 {
        fill: #000;
      }

      .cls-3 {
        fill: #bcbbbb;
      }
    </style>
  </defs>
  <path class="cls-2" d="M237.58,289.92c-8.26,0-13.84,3.18-17.31,6.84-5.06,5.2-6.37,11.53-6.37,21.57s1.31,16.48,6.37,21.7c3.39,3.64,9.05,6.84,17.31,6.84s13.94-3.2,17.43-6.87c5.03-5.2,6.35-11.53,6.35-21.68s-1.31-16.37-6.35-21.57c-3.5-3.66-9.15-6.87-17.43-6.87M244.11,331.86c-1.66,1.64-3.74,2.41-6.53,2.41-2.39.11-4.72-.76-6.45-2.41-2.85-2.87-3.2-7.8-3.2-13.63s.35-10.57,3.22-13.44c1.7-1.71,4.05-2.59,6.45-2.43,2.77,0,4.95.87,6.51,2.43,2.89,2.87,3.22,7.72,3.22,13.44s-.33,10.76-3.22,13.63M298.46,290.48l-11.32,34.43-11.4-34.43h-14.63l20.64,55.76h10.96l20.56-55.76h-14.81ZM336.95,289.88c-14.54,0-24.38,10.24-24.38,28.44,0,22.55,12.73,28.54,25.88,28.54,10.09,0,15.58-3.12,21.22-8.76l-8.43-8.24c-3.58,3.54-6.53,5.2-12.71,5.2-7.84,0-12.27-5.2-12.27-12.4h34.99v-6.24c.1-15.27-8.7-26.55-24.28-26.55M326.36,313.12c.08-2.41.42-3.97,1.31-5.97,1.62-3.67,5.31-5.98,9.32-5.83,4.02-.2,7.73,2.12,9.3,5.83.87,2,1.23,3.54,1.31,5.97h-21.24ZM382.01,295.85v-5.37h-13.69v55.76h13.94v-33.5c0-7.03,4.7-10.24,9.05-10.24,3.41,0,5.24,1.12,7.41,3.29l10.55-10.59c-3.83-3.81-7.76-5.2-13.25-5.2-5.3-.1-10.4,2.04-14.02,5.91M413.59,284.74v61.5h13.94v-44.04h10.36v-10.57h-10.28v-6.08c0-3.2,1.66-5.03,4.95-5.03h5.41v-11.8h-7.91c-11.51,0-16.48,8.07-16.48,15.96M495.35,289.88c-8.26,0-13.84,3.2-17.33,6.87-5.03,5.2-6.35,11.53-6.35,21.57s1.31,16.48,6.35,21.7c3.41,3.64,9.07,6.84,17.33,6.84s13.94-3.2,17.43-6.87c5.03-5.2,6.35-11.53,6.35-21.68s-1.31-16.37-6.37-21.57c-3.39-3.66-9.13-6.87-17.41-6.87M501.99,331.86c-1.66,1.64-3.74,2.41-6.53,2.41-2.39.11-4.72-.76-6.45-2.41-2.87-2.87-3.22-7.8-3.22-13.63s.35-10.57,3.22-13.44c1.66-1.64,3.66-2.43,6.45-2.43s4.95.87,6.53,2.43c2.87,2.87,3.2,7.72,3.2,13.44s-.33,10.76-3.2,13.63M585.15,290.48l-9.05,34.43-11.51-34.43h-10.19l-11.4,34.43-9.05-34.43h-14.81l17.16,55.76h11.48l11.67-34.95,11.67,34.95h11.51l17.23-55.76h-14.71ZM458.53,329.45v-60.71h-13.94v61.58c0,7.91,4.87,15.96,16.37,15.96h7.91v-11.8h-5.39c-3.56,0-4.95-1.75-4.95-5.03"/>
  <path class="cls-1" d="M651.68,248c-9.16,0-17.24,5.99-19.91,14.75l-23.72,78.02c-3.34,10.99,2.86,22.62,13.85,25.96,1.96.6,3.99.9,6.04.9h106.73c9.16,0,17.24-5.99,19.91-14.75l23.72-78.02c3.34-10.99-2.86-22.62-13.85-25.96-1.96-.6-3.99-.9-6.04-.9h-106.73ZM716.88,333.36v-51.1h-8.53v-12.23h31.81v12.23h-8.53v51.1h8.53v12.23h-31.81v-12.23h8.53ZM653.03,282.37h-5.6v-12.23h25.94l19.76,63.25h7.97v12.21h-27.98v-12.23h5.95l-2.29-8.32h-23.41l-2.29,8.32h7.55v12.23h-27.98v-12.23h6.35l16.02-50.99ZM656.78,312.83h16.64l-8.32-30.1-8.32,30.1Z"/>
  <path class="cls-3" d="M169.63,318.9v39.43h-93.23v-39.43h-14.04v53.41h121.29v-53.41h-14.02Z"/>
  <path class="cls-1" d="M89.24,345.62h67.59v-12.71h-67.59v12.71ZM90.6,315.2l65.66,13.73,2.7-13.04-65.66-13.73-2.7,13.04ZM99.25,283.87l60.79,28.25,5.66-12.11-60.79-28.25-5.66,12.11ZM116.12,254.12l51.6,42.8,8.65-10.24-51.74-42.77-8.51,10.22ZM149.37,222.51l-10.82,7.95,39.99,53.68,10.82-7.95-39.99-53.68Z"/>
</svg>